<mxfile host="app.diagrams.net" modified="2024-07-08T02:05:28.643Z" agent="Mozilla/5.0 (Windows NT 10.0; Win64; x64) AppleWebKit/537.36 (KHTML, like Gecko) Chrome/126.0.0.0 Safari/537.36 Edg/126.0.0.0" version="24.6.4" etag="F415_Gfz37AzZHu8kUjv" type="github">
  <diagram name="ページ1" id="r_tQ8U95kH6BOmfM2JSI">
    <mxGraphModel>
      <root>
        <mxCell id="0" />
        <mxCell id="1" parent="0" />
      </root>
    </mxGraphModel>
  </diagram>
</mxfile>
